<svg xmlns="http://www.w3.org/2000/svg" width="395" height="229"><path d="M392.132 137.486c-9.888.425-18.54-1.672-27.932-4.803-3.657-1.219-7.668-2.264-11.083-4.064.354 4.49 2.413 8.625 2.844 13.079.553 5.715-1.49 10.757-3.51 15.96h-.443c-1.827-4.388-5.095-8.84-5.311-13.743-.101-2.282.779-3.489 1.418-5.542.355-1.14.142-2.576.283-3.769.497-4.195 1.253-9.228 6.27-10.125 3.813-.683 7.672.452 11.306 1.542 6.695 2.009 13.08 5.166 19.95 6.588-.09-4.35-1.276-8.917-2.47-13.079-.95-3.315-2.405-6.664-4.328-9.532-1.51-2.25-3.273-4.2-5.394-5.885-9.613-7.645-23.51-5.287-34.803-4.514-4.607.316-9.546.466-13.965-1.14-4.941-1.796-6.974-5.518-10.197-9.298l.665 4.433-5.099-2.882-1.108 2.439c3.007.885 5.946 3.376 8.423 5.237 7.672 5.766 12.938 13.858 14.535 23.36 1.267 7.542.55 15.404 2.509 22.832.97 3.676 2.711 7.21 5.354 9.975 1.325 1.385 4.497 2.91 5.178 4.664.82 2.113.616 5.048 1.115 7.307 1.174 5.323 2.728 10.536 4.345 15.739 2.605 8.383 5.611 16.64 8.134 25.049 1.663 5.544 3.387 11.237 3.387 17.07l-26.823-.223c1.052-2.563 2.21-5.208 4.057-7.312.792-.902 2.98-1.862 3.122-3.115.157-1.388-.72-3.318-1.1-4.647-1.058-3.708-2.373-7.319-3.895-10.862-5.662-13.182-15.873-23.21-28.785-29.31-11.887-5.614-25.705-8.483-35.69-17.501-11.323-10.228-13.965-27.126-13.965-41.637l-2.66.221c.49 11.414 1.6 23.285 7.285 33.473 2.247 4.03 5.498 6.843 8.232 10.42-22.05 10.447-45.292 19.895-70.05 19.288-6.333-.155-12.734-1.087-18.842-2.82-1.992-.566-4.623-.917-6.364-2.079-1.988-1.327-3.527-4.125-5.035-5.966-3.455-4.215-8.292-8.674-10.769-13.522-2.394 1.687-4.187 4.185-6.428 6.076-.732.617-1.676 1.677-2.66 1.85-1.43.25-3.904-1.81-5.099-2.518-4.538-2.69-8.918-5.727-13.522-8.29v-.444c11.088-3.75 21.895-6.833 33.473-8.775l10.419-1.735c1.115-.187 3.237-.137 4.098-.928 1.307-1.202 1.257-5.674 1.535-7.404 1.246-7.757 1.87-15.713.518-23.498a56.384 56.384 0 00-1.723-7.093c-.242-.777-.48-2.163-1.556-2.01-.6.087-1.328.477-1.357 1.146-.092 2.155 1.463 5.117 1.899 7.292 2.026 10.132-.403 19.43-1.197 29.483-15.101 2.845-30.399 4.578-44.779 10.33-3.487 1.395-6.963 2.964-10.197 4.878-.854.505-2.84 1.25-3.203 2.234-.94 2.527 2.864 2.066 4.09 2.066 5.785 0 11.223.93 16.404 3.604 1.917.99 3.657 2.257 5.32 3.626.78.64 1.56 1.716 2.66 1.689 4.948-.122 7.207-5.988 11.084-7.81l12.106 15.073 4.963 6.429c-4.988.04-10.086 1.19-15.074 1.532-3.044.208-6.302-.438-9.31.07-1.27.213-2.412 1.208-3.547 1.776-2.31 1.155-4.948 1.9-7.537 1.35-6.303-1.336-11.516-7.442-17.07-10.523-7.853-4.356-16.658-5.51-25.492-5.51 0-5.408.22-10.78.222-16.183 0-1.735-.355-5.413.576-6.871 1.567-2.452 4.804-4.517 6.96-6.467 4.086-3.695 8.034-7.562 12.193-11.174 1.962-1.705 6.04-4.297 7.089-6.681.35-.798-.807-2.073-1.193-2.724-1.392-2.355-2.423-4.926-3.23-7.537-2.473-7.987-.795-15.231-.45-23.275-.64-.006-1.786-.301-2.305.153-.499.437-.494 1.456-.594 2.063-.308 1.88-.614 3.858-.647 5.764-.091 5.47-.109 10.642 1.527 15.96a38.957 38.957 0 002.407 5.986c.388.776 1.357 1.997 1.32 2.881-.04.88-1.127 1.507-1.708 2.033l-5.098 4.656c-1.929 1.744-3.893 3.48-5.764 5.285-.676.651-1.653 1.894-2.66 1.99-1.667.16-4.644-2.92-5.985-3.842-5.613-3.86-11.095-7.921-16.626-11.895.129 6.24 1 12.11-1.206 18.178a37.673 37.673 0 01-4.04 7.98c-.73 1.099-2.377 2.637-2.455 3.99-.073 1.283.738 2.815 1.18 3.99 1.511 4.046 4.395 10.075.516 13.677-6.502 6.036-16.832 3.541-24.586 5.387.255-3.19 1.8-6.561 1.638-9.753-.088-1.702-1.317-3.577-2.013-5.099-2.119-4.626-4.668-9.205-8.273-12.856-1.71-1.733-3.72-3.188-5.76-4.503-.932-.6-2.453-1.142-3.102-2.062-.559-.792-.528-2.255-.685-3.19-.344-2.027-.83-4.013-1.406-5.985-1.31-4.478-4.054-8.147-5.67-12.414l7.537.443.222-2.66-17.291-.434-15.96 1.764v-.221c1.83-.674.886-4.73.886-6.429l-1.33.665v-.221c9.11-5.578 22.63-15.497 33.916-10.64l.887-2.44-6.207-1.33c6.216-9.396 14.903-17.784 22.833-25.714 19.16-19.16 41.48-37.059 66.502-47.976 7.95-3.468 15.95-6.535 24.385-8.634 2.332-.58 6.992-2.4 9.31-1.557 1.137.414 2.044 1.698 2.882 2.526 1.818 1.797 3.709 3.53 5.542 5.317 5.965 5.82 12.104 11.543 18.399 17.01 16.077 13.963 33.562 26.257 53.424 34.2 5.557 2.223 11.407 4.683 17.29 5.886 4.686.958 9.656.992 14.41 1.468 7.455.746 14.917 2.02 22.167 3.927 13.665 3.593 26.35 10.412 40.124 13.454 6.202 1.37 12.511 1.692 18.842 1.415 7.892-.346 16.28-1.376 23.941 1.271 5.831 2.015 9.592 7.159 12.247 12.482 5.093 10.211 7.26 22.362 7.26 33.694M3.756 103.348l-.443.443.443-.443m-.665.443l-.222.222.222-.222m2.66 4.877l.222.222-.222-.222m-1.551.665v.222h-.665l.665-.222m-1.109.222l-.222.222.222-.222m320.987 112.833l-26.823-.222c1.003-2.584 2.149-5.233 4.029-7.314.794-.879 2.997-1.876 3.119-3.113.12-1.218-.605-2.81-.915-3.982a75.201 75.201 0 00-3.606-10.418c-4.956-11.54-12.776-21.099-23.686-27.485-5.252-3.075-10.924-4.977-16.404-7.54 2.756-1.852 6.316-2.82 9.31-4.27 1.383-.668 3.34-2.052 4.877-2.178.982-.08 1.908.897 2.66 1.406 1.757 1.187 3.65 2.26 5.542 3.213 6.59 3.319 13.62 5.56 20.394 8.446 2.016.858 6.204 1.871 7.518 3.666.747 1.022.889 2.711 1.276 3.904 1.054 3.246 2.024 6.515 3.103 9.754 3.785 11.354 9.606 23.999 9.606 36.133m-115.272-46.552c0 6.238-.053 12.654.76 18.843.249 1.899.445 3.851.576 5.763.042.615.354 1.52-.015 2.076-1.067 1.606-5.102 2.193-6.862 2.521-7.287 1.36-14.069-.769-21.281-.828 1.34-3.536 4.541-6.907 6.966-9.754.914-1.072 2.668-2.402 3.077-3.769.389-1.296-.298-3.334-.482-4.655-.533-3.822-1.277-7.682-1.58-11.527 6.271 1.182 12.482 1.33 18.842 1.33z" fill="#770202"/><path fill="none" d="M84.991 193.021H341.01v50.722H84.991z"/></svg>